<svg width="295" height="420" viewBox="0 0 295 420" fill="none" xmlns="http://www.w3.org/2000/svg" xmlns:xlink="http://www.w3.org/1999/xlink">
<path d="M0 30.0039C0 13.4354 13.4315 0.00390625 30 0.00390625H265C281.569 0.00390625 295 13.4354 295 30.0039V420.004H0V30.0039Z" fill="url(#pattern0_2_5547)"></path>
<path d="M20 364.004C20 352.958 28.9543 344.004 40 344.004H255C266.046 344.004 275 352.958 275 364.004V400.004H20V364.004Z" fill="#FAFAFA"></path>
<path d="M74.8219 364.274V373.888C74.8219 375.971 74.2719 377.569 73.1719 378.684C72.0865 379.799 70.5245 380.356 68.4859 380.356C67.2539 380.356 66.1759 380.129 65.2519 379.674C64.3425 379.205 63.6239 378.545 63.0959 377.694C62.5679 376.829 62.2599 375.802 62.1719 374.614L65.1199 374.262C65.2372 375.391 65.5819 376.257 66.1539 376.858C66.7259 377.445 67.5032 377.738 68.4859 377.738C69.5712 377.738 70.3999 377.408 70.9719 376.748C71.5585 376.088 71.8519 375.135 71.8519 373.888V364.274H74.8219ZM80.4271 380.004H77.5231V368.938H80.4271V380.004ZM78.9751 367.024C78.4911 367.024 78.0731 366.863 77.7211 366.54C77.3837 366.203 77.2151 365.799 77.2151 365.33C77.2151 364.831 77.3837 364.421 77.7211 364.098C78.0731 363.775 78.4911 363.614 78.9751 363.614C79.4737 363.614 79.8917 363.783 80.2291 364.12C80.5664 364.443 80.7351 364.846 80.7351 365.33C80.7351 365.799 80.5664 366.203 80.2291 366.54C79.8917 366.863 79.4737 367.024 78.9751 367.024ZM100.756 380.004H97.8516V373.536C97.8516 372.685 97.6756 372.055 97.3236 371.644C96.9716 371.219 96.4949 371.006 95.8936 371.006C95.4536 371.006 95.0356 371.131 94.6396 371.38C94.2583 371.615 93.9429 371.996 93.6936 372.524C93.4589 373.037 93.3416 373.712 93.3416 374.548V380.004H90.4376V373.536C90.4376 372.685 90.2616 372.055 89.9096 371.644C89.5576 371.219 89.0736 371.006 88.4576 371.006C88.0176 371.006 87.5996 371.131 87.2036 371.38C86.8223 371.615 86.5069 371.996 86.2576 372.524C86.0229 373.037 85.9056 373.712 85.9056 374.548V380.004H83.0016V368.938H85.8836V371.358L85.7296 371.336C85.9349 370.617 86.2283 370.067 86.6096 369.686C87.0056 369.29 87.4383 369.011 87.9076 368.85C88.3916 368.674 88.8683 368.586 89.3376 368.586C90.2616 368.586 91.0316 368.835 91.6476 369.334C92.2783 369.833 92.6963 370.573 92.9016 371.556L92.6156 371.578C92.8356 370.815 93.1583 370.221 93.5836 369.796C94.0236 369.356 94.5149 369.048 95.0576 368.872C95.6003 368.681 96.1356 368.586 96.6636 368.586C97.9543 368.586 98.9589 368.989 99.6776 369.796C100.396 370.603 100.756 371.776 100.756 373.316V380.004ZM109.21 363.438H110.926C110.486 363.966 110.126 364.545 109.848 365.176C109.584 365.807 109.466 366.342 109.496 366.782L109.034 366.232C109.532 366.232 109.95 366.401 110.288 366.738C110.64 367.061 110.816 367.457 110.816 367.926C110.816 368.41 110.654 368.821 110.332 369.158C110.009 369.495 109.598 369.664 109.1 369.664C108.557 369.664 108.117 369.473 107.78 369.092C107.442 368.711 107.274 368.219 107.274 367.618C107.274 367.193 107.362 366.731 107.538 366.232C107.728 365.719 107.963 365.22 108.242 364.736C108.535 364.237 108.858 363.805 109.21 363.438ZM113.346 363.438H115.062C114.622 363.966 114.262 364.545 113.984 365.176C113.72 365.807 113.602 366.342 113.632 366.782L113.17 366.232C113.668 366.232 114.086 366.401 114.424 366.738C114.776 367.061 114.952 367.457 114.952 367.926C114.952 368.41 114.79 368.821 114.468 369.158C114.145 369.495 113.734 369.664 113.236 369.664C112.693 369.664 112.253 369.473 111.916 369.092C111.578 368.711 111.41 368.219 111.41 367.618C111.41 367.193 111.498 366.731 111.674 366.232C111.864 365.719 112.099 365.22 112.378 364.736C112.671 364.237 112.994 363.805 113.346 363.438ZM127.287 364.274V373.888C127.287 375.971 126.737 377.569 125.637 378.684C124.551 379.799 122.989 380.356 120.951 380.356C119.719 380.356 118.641 380.129 117.717 379.674C116.807 379.205 116.089 378.545 115.561 377.694C115.033 376.829 114.725 375.802 114.637 374.614L117.585 374.262C117.702 375.391 118.047 376.257 118.619 376.858C119.191 377.445 119.968 377.738 120.951 377.738C122.036 377.738 122.865 377.408 123.437 376.748C124.023 376.088 124.317 375.135 124.317 373.888V364.274H127.287ZM141.445 364.274V373.888C141.445 375.971 140.895 377.569 139.795 378.684C138.71 379.799 137.148 380.356 135.109 380.356C133.877 380.356 132.799 380.129 131.875 379.674C130.966 379.205 130.247 378.545 129.719 377.694C129.191 376.829 128.883 375.802 128.795 374.614L131.743 374.262C131.86 375.391 132.205 376.257 132.777 376.858C133.349 377.445 134.126 377.738 135.109 377.738C136.194 377.738 137.023 377.408 137.595 376.748C138.182 376.088 138.475 375.135 138.475 373.888V364.274H141.445ZM145.664 369.796H143.926C144.381 369.253 144.74 368.674 145.004 368.058C145.283 367.427 145.407 366.892 145.378 366.452L145.818 367.002C145.319 367.002 144.894 366.841 144.542 366.518C144.205 366.181 144.036 365.777 144.036 365.308C144.036 364.809 144.197 364.399 144.52 364.076C144.857 363.739 145.268 363.57 145.752 363.57C146.295 363.57 146.735 363.761 147.072 364.142C147.424 364.509 147.6 364.993 147.6 365.594C147.6 366.019 147.505 366.489 147.314 367.002C147.138 367.515 146.903 368.014 146.61 368.498C146.317 368.982 146.001 369.415 145.664 369.796ZM149.8 369.796H148.062C148.517 369.253 148.876 368.674 149.14 368.058C149.419 367.427 149.543 366.892 149.514 366.452L149.954 367.002C149.455 367.002 149.03 366.841 148.678 366.518C148.341 366.181 148.172 365.777 148.172 365.308C148.172 364.809 148.333 364.399 148.656 364.076C148.993 363.739 149.404 363.57 149.888 363.57C150.431 363.57 150.871 363.761 151.208 364.142C151.56 364.509 151.736 364.993 151.736 365.594C151.736 366.019 151.641 366.489 151.45 367.002C151.274 367.515 151.039 368.014 150.746 368.498C150.453 368.982 150.137 369.415 149.8 369.796ZM170.535 364.274V373.888C170.535 375.971 169.985 377.569 168.885 378.684C167.799 379.799 166.237 380.356 164.199 380.356C162.967 380.356 161.889 380.129 160.965 379.674C160.055 379.205 159.337 378.545 158.809 377.694C158.281 376.829 157.973 375.802 157.885 374.614L160.833 374.262C160.95 375.391 161.295 376.257 161.867 376.858C162.439 377.445 163.216 377.738 164.199 377.738C165.284 377.738 166.113 377.408 166.685 376.748C167.271 376.088 167.565 375.135 167.565 373.888V364.274H170.535ZM178.956 380.356C177.753 380.356 176.69 380.107 175.766 379.608C174.842 379.095 174.123 378.398 173.61 377.518C173.097 376.623 172.84 375.611 172.84 374.482C172.84 373.323 173.097 372.304 173.61 371.424C174.123 370.544 174.842 369.855 175.766 369.356C176.69 368.843 177.753 368.586 178.956 368.586C180.159 368.586 181.222 368.843 182.146 369.356C183.07 369.855 183.789 370.544 184.302 371.424C184.815 372.304 185.072 373.316 185.072 374.46C185.072 375.604 184.815 376.623 184.302 377.518C183.789 378.398 183.07 379.095 182.146 379.608C181.222 380.107 180.159 380.356 178.956 380.356ZM178.956 377.936C179.572 377.936 180.115 377.789 180.584 377.496C181.053 377.203 181.42 376.799 181.684 376.286C181.948 375.758 182.08 375.157 182.08 374.482C182.08 373.793 181.948 373.191 181.684 372.678C181.42 372.15 181.053 371.739 180.584 371.446C180.115 371.153 179.572 371.006 178.956 371.006C178.34 371.006 177.797 371.153 177.328 371.446C176.859 371.739 176.492 372.15 176.228 372.678C175.964 373.191 175.832 373.793 175.832 374.482C175.832 375.157 175.964 375.758 176.228 376.286C176.492 376.799 176.859 377.203 177.328 377.496C177.797 377.789 178.34 377.936 178.956 377.936ZM194.939 368.938H197.865L192.607 381.28C192.182 382.263 191.647 383.003 191.001 383.502C190.356 384.015 189.498 384.272 188.427 384.272H186.997V381.896H188.273C188.713 381.896 189.08 381.793 189.373 381.588C189.681 381.397 189.923 381.089 190.099 380.664L190.341 380.026L185.611 368.938H188.625L192.233 378.376H191.287L194.939 368.938ZM210.291 380.004H207.387V373.602C207.387 372.737 207.189 372.091 206.793 371.666C206.397 371.226 205.862 371.006 205.187 371.006C204.718 371.006 204.271 371.131 203.845 371.38C203.42 371.629 203.075 372.018 202.811 372.546C202.547 373.074 202.415 373.771 202.415 374.636V380.004H199.511V368.938H202.393V372.37H202.041C202.173 371.387 202.445 370.625 202.855 370.082C203.281 369.525 203.772 369.136 204.329 368.916C204.901 368.696 205.466 368.586 206.023 368.586C207.343 368.586 208.385 368.989 209.147 369.796C209.91 370.603 210.291 371.776 210.291 373.316V380.004ZM222.251 376.55L223.791 378.332C223.233 378.963 222.515 379.461 221.635 379.828C220.769 380.18 219.809 380.356 218.753 380.356C217.477 380.356 216.355 380.107 215.387 379.608C214.419 379.109 213.663 378.42 213.121 377.54C212.578 376.66 212.307 375.641 212.307 374.482C212.307 373.323 212.563 372.304 213.077 371.424C213.605 370.529 214.316 369.833 215.211 369.334C216.12 368.835 217.139 368.586 218.269 368.586C219.369 368.586 220.344 368.835 221.195 369.334C222.06 369.818 222.735 370.493 223.219 371.358C223.703 372.223 223.945 373.228 223.945 374.372V374.504H221.107V374.196C221.107 373.521 220.982 372.935 220.733 372.436C220.498 371.937 220.168 371.549 219.743 371.27C219.332 370.991 218.841 370.852 218.269 370.852C217.667 370.852 217.139 370.999 216.685 371.292C216.23 371.571 215.871 371.981 215.607 372.524C215.357 373.052 215.233 373.683 215.233 374.416C215.233 375.193 215.387 375.861 215.695 376.418C216.017 376.961 216.45 377.379 216.993 377.672C217.55 377.951 218.188 378.09 218.907 378.09C220.227 378.09 221.341 377.577 222.251 376.55ZM223.945 375.362H214.177V373.514H223.593L223.945 374.372V375.362ZM233.016 368.74V371.38H232.422C231.733 371.38 231.139 371.519 230.64 371.798C230.142 372.062 229.746 372.48 229.452 373.052C229.174 373.624 229.034 374.365 229.034 375.274V380.004H226.13V368.938H229.012V372.524H228.66C228.792 371.541 229.064 370.779 229.474 370.236C229.9 369.693 230.391 369.312 230.948 369.092C231.52 368.857 232.078 368.74 232.62 368.74H233.016Z" fill="#222222"></path>
<defs>
<pattern id="pattern0_2_5547" patternContentUnits="objectBoundingBox" width="1" height="1">
<use xlink:href="#image0_2_5547" transform="matrix(0.00156798 0 0 0.00110132 -0.120921 0)"></use>
</pattern>
<image id="image0_2_5547" width="792" height="908"></image>
</defs>
</svg>