<svg width="295" height="420" viewBox="0 0 295 420" fill="none" xmlns="http://www.w3.org/2000/svg" xmlns:xlink="http://www.w3.org/1999/xlink">
<path d="M0 30.0039C0 13.4354 13.4315 0.00390625 30 0.00390625H265C281.569 0.00390625 295 13.4354 295 30.0039V420.004H0V30.0039Z" fill="url(#pattern0_2_5550)"></path>
<path d="M20 339.004C20 327.958 28.9543 319.004 40 319.004H255C266.046 319.004 275 327.958 275 339.004V400.004H20V339.004Z" fill="#FAFAFA"></path>
<path d="M100.85 339.274V348.888C100.85 350.971 100.3 352.569 99.2002 353.684C98.1149 354.799 96.5529 355.356 94.5142 355.356C93.2822 355.356 92.2042 355.129 91.2802 354.674C90.3709 354.205 89.6522 353.545 89.1242 352.694C88.5962 351.829 88.2882 350.802 88.2002 349.614L91.1482 349.262C91.2655 350.391 91.6102 351.257 92.1822 351.858C92.7542 352.445 93.5315 352.738 94.5142 352.738C95.5995 352.738 96.4282 352.408 97.0002 351.748C97.5869 351.088 97.8802 350.135 97.8802 348.888V339.274H100.85ZM109.271 355.356C108.069 355.356 107.005 355.107 106.081 354.608C105.157 354.095 104.439 353.398 103.925 352.518C103.412 351.623 103.155 350.611 103.155 349.482C103.155 348.323 103.412 347.304 103.925 346.424C104.439 345.544 105.157 344.855 106.081 344.356C107.005 343.843 108.069 343.586 109.271 343.586C110.474 343.586 111.537 343.843 112.461 344.356C113.385 344.855 114.104 345.544 114.617 346.424C115.131 347.304 115.387 348.316 115.387 349.46C115.387 350.604 115.131 351.623 114.617 352.518C114.104 353.398 113.385 354.095 112.461 354.608C111.537 355.107 110.474 355.356 109.271 355.356ZM109.271 352.936C109.887 352.936 110.43 352.789 110.899 352.496C111.369 352.203 111.735 351.799 111.999 351.286C112.263 350.758 112.395 350.157 112.395 349.482C112.395 348.793 112.263 348.191 111.999 347.678C111.735 347.15 111.369 346.739 110.899 346.446C110.43 346.153 109.887 346.006 109.271 346.006C108.655 346.006 108.113 346.153 107.643 346.446C107.174 346.739 106.807 347.15 106.543 347.678C106.279 348.191 106.147 348.793 106.147 349.482C106.147 350.157 106.279 350.758 106.543 351.286C106.807 351.799 107.174 352.203 107.643 352.496C108.113 352.789 108.655 352.936 109.271 352.936ZM128.318 355.004H125.414V348.602C125.414 347.737 125.216 347.091 124.82 346.666C124.424 346.226 123.888 346.006 123.214 346.006C122.744 346.006 122.297 346.131 121.872 346.38C121.446 346.629 121.102 347.018 120.838 347.546C120.574 348.074 120.442 348.771 120.442 349.636V355.004H117.538V339.164H120.442V347.37H120.068C120.2 346.387 120.471 345.625 120.882 345.082C121.307 344.525 121.798 344.136 122.356 343.916C122.928 343.696 123.492 343.586 124.05 343.586C125.37 343.586 126.411 343.989 127.174 344.796C127.936 345.603 128.318 346.776 128.318 348.316V355.004ZM141.509 355.004H138.605V348.602C138.605 347.737 138.407 347.091 138.011 346.666C137.615 346.226 137.08 346.006 136.405 346.006C135.936 346.006 135.488 346.131 135.063 346.38C134.638 346.629 134.293 347.018 134.029 347.546C133.765 348.074 133.633 348.771 133.633 349.636V355.004H130.729V343.938H133.611V347.37H133.259C133.391 346.387 133.662 345.625 134.073 345.082C134.498 344.525 134.99 344.136 135.547 343.916C136.119 343.696 136.684 343.586 137.241 343.586C138.561 343.586 139.602 343.989 140.365 344.796C141.128 345.603 141.509 346.776 141.509 348.316V355.004ZM151.473 355.004H148.503V339.274H159.129V341.782H151.473V355.004ZM158.711 348.294H151.253V345.786H158.711V348.294ZM168.123 343.74V346.38H167.529C166.84 346.38 166.246 346.519 165.747 346.798C165.248 347.062 164.852 347.48 164.559 348.052C164.28 348.624 164.141 349.365 164.141 350.274V355.004H161.237V343.938H164.119V347.524H163.767C163.899 346.541 164.17 345.779 164.581 345.236C165.006 344.693 165.498 344.312 166.055 344.092C166.627 343.857 167.184 343.74 167.727 343.74H168.123ZM179.953 355.004H177.313V352.782L177.181 352.43V348.272C177.181 347.495 176.932 346.893 176.433 346.468C175.935 346.043 175.253 345.83 174.387 345.83C173.757 345.83 173.163 345.955 172.605 346.204C172.063 346.439 171.586 346.776 171.175 347.216L169.657 345.456C170.244 344.869 170.955 344.415 171.791 344.092C172.627 343.755 173.537 343.586 174.519 343.586C175.59 343.586 176.536 343.769 177.357 344.136C178.179 344.503 178.817 345.031 179.271 345.72C179.726 346.395 179.953 347.223 179.953 348.206V355.004ZM173.551 355.356C172.701 355.356 171.953 355.202 171.307 354.894C170.662 354.586 170.156 354.161 169.789 353.618C169.437 353.075 169.261 352.445 169.261 351.726C169.261 350.963 169.481 350.318 169.921 349.79C170.361 349.247 170.985 348.829 171.791 348.536C172.613 348.243 173.559 348.096 174.629 348.096H177.467V349.988H174.849C174.057 349.988 173.419 350.127 172.935 350.406C172.451 350.685 172.209 351.088 172.209 351.616C172.209 352.1 172.393 352.481 172.759 352.76C173.141 353.039 173.632 353.178 174.233 353.178C174.805 353.178 175.326 353.061 175.795 352.826C176.265 352.577 176.646 352.239 176.939 351.814C177.233 351.389 177.401 350.905 177.445 350.362L178.281 350.758C178.281 351.667 178.083 352.467 177.687 353.156C177.291 353.845 176.734 354.388 176.015 354.784C175.311 355.165 174.49 355.356 173.551 355.356ZM193.136 355.004H190.232V348.602C190.232 347.737 190.034 347.091 189.638 346.666C189.242 346.226 188.707 346.006 188.032 346.006C187.563 346.006 187.115 346.131 186.69 346.38C186.265 346.629 185.92 347.018 185.656 347.546C185.392 348.074 185.26 348.771 185.26 349.636V355.004H182.356V343.938H185.238V347.37H184.886C185.018 346.387 185.289 345.625 185.7 345.082C186.125 344.525 186.617 344.136 187.174 343.916C187.746 343.696 188.311 343.586 188.868 343.586C190.188 343.586 191.229 343.989 191.992 344.796C192.755 345.603 193.136 346.776 193.136 348.316V355.004ZM198.451 355.004H195.547V339.164H198.451V355.004ZM207.317 355.004H203.621L197.813 349.262H198.033L203.203 343.938H206.679L201.157 349.482V349.042L207.317 355.004Z" fill="#222222"></path>
<path d="M120.126 372.116C120.126 373.044 119.806 373.817 119.166 374.436C118.536 375.044 117.571 375.348 116.27 375.348H114.126V380.004H112.67V368.852H116.27C117.528 368.852 118.483 369.156 119.134 369.764C119.795 370.372 120.126 371.156 120.126 372.116ZM116.27 374.148C117.08 374.148 117.678 373.972 118.062 373.62C118.446 373.268 118.638 372.767 118.638 372.116C118.638 370.74 117.848 370.052 116.27 370.052H114.126V374.148H116.27ZM123.391 372.66C123.647 372.159 124.01 371.769 124.479 371.492C124.959 371.215 125.54 371.076 126.223 371.076V372.58H125.839C124.207 372.58 123.391 373.465 123.391 375.236V380.004H121.935V371.236H123.391V372.66ZM131.728 380.148C130.907 380.148 130.16 379.961 129.488 379.588C128.827 379.215 128.304 378.687 127.92 378.004C127.547 377.311 127.36 376.511 127.36 375.604C127.36 374.708 127.552 373.919 127.936 373.236C128.331 372.543 128.864 372.015 129.536 371.652C130.208 371.279 130.96 371.092 131.792 371.092C132.624 371.092 133.376 371.279 134.048 371.652C134.72 372.015 135.248 372.537 135.632 373.22C136.027 373.903 136.224 374.697 136.224 375.604C136.224 376.511 136.021 377.311 135.616 378.004C135.221 378.687 134.683 379.215 134 379.588C133.317 379.961 132.56 380.148 131.728 380.148ZM131.728 378.868C132.251 378.868 132.741 378.745 133.2 378.5C133.659 378.255 134.027 377.887 134.304 377.396C134.592 376.905 134.736 376.308 134.736 375.604C134.736 374.9 134.597 374.303 134.32 373.812C134.043 373.321 133.68 372.959 133.232 372.724C132.784 372.479 132.299 372.356 131.776 372.356C131.243 372.356 130.752 372.479 130.304 372.724C129.867 372.959 129.515 373.321 129.248 373.812C128.981 374.303 128.848 374.9 128.848 375.604C128.848 376.319 128.976 376.921 129.232 377.412C129.499 377.903 129.851 378.271 130.288 378.516C130.725 378.751 131.205 378.868 131.728 378.868ZM137.594 375.588C137.594 374.692 137.776 373.908 138.138 373.236C138.501 372.553 138.997 372.025 139.626 371.652C140.266 371.279 140.981 371.092 141.77 371.092C142.453 371.092 143.088 371.252 143.674 371.572C144.261 371.881 144.709 372.292 145.018 372.804V368.164H146.49V380.004H145.018V378.356C144.73 378.879 144.304 379.311 143.738 379.652C143.173 379.983 142.512 380.148 141.754 380.148C140.976 380.148 140.266 379.956 139.626 379.572C138.997 379.188 138.501 378.649 138.138 377.956C137.776 377.263 137.594 376.473 137.594 375.588ZM145.018 375.604C145.018 374.943 144.885 374.367 144.618 373.876C144.352 373.385 143.989 373.012 143.53 372.756C143.082 372.489 142.586 372.356 142.042 372.356C141.498 372.356 141.002 372.484 140.554 372.74C140.106 372.996 139.749 373.369 139.482 373.86C139.216 374.351 139.082 374.927 139.082 375.588C139.082 376.26 139.216 376.847 139.482 377.348C139.749 377.839 140.106 378.217 140.554 378.484C141.002 378.74 141.498 378.868 142.042 378.868C142.586 378.868 143.082 378.74 143.53 378.484C143.989 378.217 144.352 377.839 144.618 377.348C144.885 376.847 145.018 376.265 145.018 375.604ZM156.727 371.236V380.004H155.271V378.708C154.993 379.156 154.604 379.508 154.103 379.764C153.612 380.009 153.068 380.132 152.471 380.132C151.788 380.132 151.175 379.993 150.631 379.716C150.087 379.428 149.655 379.001 149.335 378.436C149.025 377.871 148.871 377.183 148.871 376.372V371.236H150.311V376.18C150.311 377.044 150.529 377.711 150.967 378.18C151.404 378.639 152.001 378.868 152.759 378.868C153.537 378.868 154.151 378.628 154.599 378.148C155.047 377.668 155.271 376.969 155.271 376.052V371.236H156.727ZM158.641 375.604C158.641 374.697 158.822 373.908 159.185 373.236C159.548 372.553 160.049 372.025 160.689 371.652C161.34 371.279 162.081 371.092 162.913 371.092C163.99 371.092 164.876 371.353 165.569 371.876C166.273 372.399 166.737 373.124 166.961 374.052H165.393C165.244 373.519 164.95 373.097 164.513 372.788C164.086 372.479 163.553 372.324 162.913 372.324C162.081 372.324 161.409 372.612 160.897 373.188C160.385 373.753 160.129 374.559 160.129 375.604C160.129 376.66 160.385 377.476 160.897 378.052C161.409 378.628 162.081 378.916 162.913 378.916C163.553 378.916 164.086 378.767 164.513 378.468C164.94 378.169 165.233 377.743 165.393 377.188H166.961C166.726 378.084 166.257 378.804 165.553 379.348C164.849 379.881 163.969 380.148 162.913 380.148C162.081 380.148 161.34 379.961 160.689 379.588C160.049 379.215 159.548 378.687 159.185 378.004C158.822 377.321 158.641 376.521 158.641 375.604ZM176.904 375.284C176.904 375.561 176.888 375.855 176.856 376.164H169.848C169.901 377.028 170.195 377.705 170.728 378.196C171.272 378.676 171.928 378.916 172.696 378.916C173.325 378.916 173.848 378.772 174.264 378.484C174.691 378.185 174.989 377.791 175.16 377.3H176.728C176.493 378.143 176.024 378.831 175.32 379.364C174.616 379.887 173.741 380.148 172.696 380.148C171.864 380.148 171.117 379.961 170.456 379.588C169.805 379.215 169.293 378.687 168.92 378.004C168.547 377.311 168.36 376.511 168.36 375.604C168.36 374.697 168.541 373.903 168.904 373.22C169.267 372.537 169.773 372.015 170.424 371.652C171.085 371.279 171.843 371.092 172.696 371.092C173.528 371.092 174.264 371.273 174.904 371.636C175.544 371.999 176.035 372.5 176.376 373.14C176.728 373.769 176.904 374.484 176.904 375.284ZM175.4 374.98C175.4 374.425 175.277 373.951 175.032 373.556C174.787 373.151 174.451 372.847 174.024 372.644C173.608 372.431 173.144 372.324 172.632 372.324C171.896 372.324 171.267 372.559 170.744 373.028C170.232 373.497 169.939 374.148 169.864 374.98H175.4ZM180.282 372.66C180.538 372.159 180.9 371.769 181.37 371.492C181.85 371.215 182.431 371.076 183.114 371.076V372.58H182.73C181.098 372.58 180.282 373.465 180.282 375.236V380.004H178.826V371.236H180.282V372.66Z" fill="#636363"></path>
<defs>
<pattern id="pattern0_2_5550" patternContentUnits="objectBoundingBox" width="1" height="1">
<use xlink:href="#image0_2_5550" transform="matrix(0.00146023 0 0 0.00102564 -0.131551 0)"></use>
</pattern>
<image id="image0_2_5550" width="865" height="975"></image>
</defs>
</svg>