<svg width="295" height="420" viewBox="0 0 295 420" fill="none" xmlns="http://www.w3.org/2000/svg" xmlns:xlink="http://www.w3.org/1999/xlink">
<path d="M0 30.0039C0 13.4354 13.4315 0.00390625 30 0.00390625H265C281.569 0.00390625 295 13.4354 295 30.0039V420.004H0V30.0039Z" fill="url(#pattern0_2_5548)"></path>
<path d="M20 364.004C20 352.958 28.9543 344.004 40 344.004H255C266.046 344.004 275 352.958 275 364.004V400.004H20V364.004Z" fill="#FAFAFA"></path>
<path d="M71.5034 380.004V364.274H77.0034C78.6901 364.274 80.1641 364.611 81.4254 365.286C82.7014 365.946 83.6914 366.87 84.3954 368.058C85.1141 369.231 85.4734 370.588 85.4734 372.128C85.4734 373.668 85.1141 375.032 84.3954 376.22C83.6914 377.393 82.7014 378.317 81.4254 378.992C80.1641 379.667 78.6901 380.004 77.0034 380.004H71.5034ZM74.4734 377.474H77.0034C78.1034 377.474 79.0494 377.254 79.8414 376.814C80.6481 376.374 81.2641 375.758 81.6894 374.966C82.1294 374.159 82.3494 373.213 82.3494 372.128C82.3494 371.043 82.1294 370.104 81.6894 369.312C81.2641 368.505 80.6481 367.889 79.8414 367.464C79.0494 367.024 78.1034 366.804 77.0034 366.804H74.4734V377.474ZM97.7755 380.004H95.1355V377.782L95.0035 377.43V373.272C95.0035 372.495 94.7542 371.893 94.2555 371.468C93.7569 371.043 93.0749 370.83 92.2095 370.83C91.5789 370.83 90.9849 370.955 90.4275 371.204C89.8849 371.439 89.4082 371.776 88.9975 372.216L87.4795 370.456C88.0662 369.869 88.7775 369.415 89.6135 369.092C90.4495 368.755 91.3589 368.586 92.3415 368.586C93.4122 368.586 94.3582 368.769 95.1795 369.136C96.0009 369.503 96.6389 370.031 97.0935 370.72C97.5482 371.395 97.7755 372.223 97.7755 373.206V380.004ZM91.3735 380.356C90.5229 380.356 89.7749 380.202 89.1295 379.894C88.4842 379.586 87.9782 379.161 87.6115 378.618C87.2595 378.075 87.0835 377.445 87.0835 376.726C87.0835 375.963 87.3035 375.318 87.7435 374.79C88.1835 374.247 88.8069 373.829 89.6135 373.536C90.4349 373.243 91.3809 373.096 92.4515 373.096H95.2895V374.988H92.6715C91.8795 374.988 91.2415 375.127 90.7575 375.406C90.2735 375.685 90.0315 376.088 90.0315 376.616C90.0315 377.1 90.2149 377.481 90.5815 377.76C90.9629 378.039 91.4542 378.178 92.0555 378.178C92.6275 378.178 93.1482 378.061 93.6175 377.826C94.0869 377.577 94.4682 377.239 94.7615 376.814C95.0549 376.389 95.2235 375.905 95.2675 375.362L96.1035 375.758C96.1035 376.667 95.9055 377.467 95.5095 378.156C95.1135 378.845 94.5562 379.388 93.8375 379.784C93.1335 380.165 92.3122 380.356 91.3735 380.356ZM110.958 380.004H108.054V373.602C108.054 372.737 107.856 372.091 107.46 371.666C107.064 371.226 106.529 371.006 105.854 371.006C105.385 371.006 104.938 371.131 104.512 371.38C104.087 371.629 103.742 372.018 103.478 372.546C103.214 373.074 103.082 373.771 103.082 374.636V380.004H100.178V368.938H103.06V372.37H102.708C102.84 371.387 103.112 370.625 103.522 370.082C103.948 369.525 104.439 369.136 104.996 368.916C105.568 368.696 106.133 368.586 106.69 368.586C108.01 368.586 109.052 368.989 109.814 369.796C110.577 370.603 110.958 371.776 110.958 373.316V380.004ZM124.15 380.004H121.246V373.602C121.246 372.737 121.048 372.091 120.652 371.666C120.256 371.226 119.72 371.006 119.046 371.006C118.576 371.006 118.129 371.131 117.704 371.38C117.278 371.629 116.934 372.018 116.67 372.546C116.406 373.074 116.274 373.771 116.274 374.636V380.004H113.37V368.938H116.252V372.37H115.9C116.032 371.387 116.303 370.625 116.714 370.082C117.139 369.525 117.63 369.136 118.188 368.916C118.76 368.696 119.324 368.586 119.882 368.586C121.202 368.586 122.243 368.989 123.006 369.796C123.768 370.603 124.15 371.776 124.15 373.316V380.004ZM134.429 368.938H137.355L132.097 381.28C131.671 382.263 131.136 383.003 130.491 383.502C129.845 384.015 128.987 384.272 127.917 384.272H126.487V381.896H127.763C128.203 381.896 128.569 381.793 128.863 381.588C129.171 381.397 129.413 381.089 129.589 380.664L129.831 380.026L125.101 368.938H128.115L131.723 378.376H130.777L134.429 368.938ZM154.055 380.004V364.274H157.025V380.004H154.055ZM146.553 380.004H143.583V364.274H146.553V380.004ZM146.333 373.184V370.654H154.275V373.184H146.333ZM165.582 380.356C164.379 380.356 163.316 380.107 162.392 379.608C161.468 379.095 160.749 378.398 160.236 377.518C159.723 376.623 159.466 375.611 159.466 374.482C159.466 373.323 159.723 372.304 160.236 371.424C160.749 370.544 161.468 369.855 162.392 369.356C163.316 368.843 164.379 368.586 165.582 368.586C166.785 368.586 167.848 368.843 168.772 369.356C169.696 369.855 170.415 370.544 170.928 371.424C171.441 372.304 171.698 373.316 171.698 374.46C171.698 375.604 171.441 376.623 170.928 377.518C170.415 378.398 169.696 379.095 168.772 379.608C167.848 380.107 166.785 380.356 165.582 380.356ZM165.582 377.936C166.198 377.936 166.741 377.789 167.21 377.496C167.679 377.203 168.046 376.799 168.31 376.286C168.574 375.758 168.706 375.157 168.706 374.482C168.706 373.793 168.574 373.191 168.31 372.678C168.046 372.15 167.679 371.739 167.21 371.446C166.741 371.153 166.198 371.006 165.582 371.006C164.966 371.006 164.423 371.153 163.954 371.446C163.485 371.739 163.118 372.15 162.854 372.678C162.59 373.191 162.458 373.793 162.458 374.482C162.458 375.157 162.59 375.758 162.854 376.286C163.118 376.799 163.485 377.203 163.954 377.496C164.423 377.789 164.966 377.936 165.582 377.936ZM186.637 380.004H183.755L180.961 371.556H181.753L179.003 380.004H176.121L172.667 368.938H175.527L178.035 378.2H177.309L180.213 368.938H182.633L185.537 378.2H184.789L187.297 368.938H190.091L186.637 380.004ZM201.266 380.004H198.626V377.782L198.494 377.43V373.272C198.494 372.495 198.244 371.893 197.746 371.468C197.247 371.043 196.565 370.83 195.7 370.83C195.069 370.83 194.475 370.955 193.918 371.204C193.375 371.439 192.898 371.776 192.488 372.216L190.97 370.456C191.556 369.869 192.268 369.415 193.104 369.092C193.94 368.755 194.849 368.586 195.832 368.586C196.902 368.586 197.848 368.769 198.67 369.136C199.491 369.503 200.129 370.031 200.584 370.72C201.038 371.395 201.266 372.223 201.266 373.206V380.004ZM194.864 380.356C194.013 380.356 193.265 380.202 192.62 379.894C191.974 379.586 191.468 379.161 191.102 378.618C190.75 378.075 190.574 377.445 190.574 376.726C190.574 375.963 190.794 375.318 191.234 374.79C191.674 374.247 192.297 373.829 193.104 373.536C193.925 373.243 194.871 373.096 195.942 373.096H198.78V374.988H196.162C195.37 374.988 194.732 375.127 194.248 375.406C193.764 375.685 193.522 376.088 193.522 376.616C193.522 377.1 193.705 377.481 194.072 377.76C194.453 378.039 194.944 378.178 195.546 378.178C196.118 378.178 196.638 378.061 197.108 377.826C197.577 377.577 197.958 377.239 198.252 376.814C198.545 376.389 198.714 375.905 198.758 375.362L199.594 375.758C199.594 376.667 199.396 377.467 199 378.156C198.604 378.845 198.046 379.388 197.328 379.784C196.624 380.165 195.802 380.356 194.864 380.356ZM210.555 368.74V371.38H209.961C209.271 371.38 208.677 371.519 208.179 371.798C207.68 372.062 207.284 372.48 206.991 373.052C206.712 373.624 206.573 374.365 206.573 375.274V380.004H203.669V368.938H206.551V372.524H206.199C206.331 371.541 206.602 370.779 207.013 370.236C207.438 369.693 207.929 369.312 208.487 369.092C209.059 368.857 209.616 368.74 210.159 368.74H210.555ZM223.775 380.004H220.893V377.386L220.871 377.232V374.548C220.871 373.815 220.739 373.191 220.475 372.678C220.211 372.15 219.837 371.739 219.353 371.446C218.883 371.153 218.341 371.006 217.725 371.006C217.109 371.006 216.559 371.153 216.075 371.446C215.605 371.739 215.239 372.15 214.975 372.678C214.725 373.191 214.601 373.793 214.601 374.482C214.601 375.142 214.74 375.736 215.019 376.264C215.297 376.792 215.679 377.203 216.163 377.496C216.647 377.789 217.211 377.936 217.857 377.936C218.399 377.936 218.898 377.833 219.353 377.628C219.807 377.408 220.181 377.107 220.475 376.726C220.768 376.33 220.951 375.883 221.025 375.384L221.663 375.78C221.707 376.616 221.545 377.386 221.179 378.09C220.827 378.779 220.306 379.329 219.617 379.74C218.942 380.151 218.121 380.356 217.153 380.356C216.126 380.356 215.187 380.107 214.337 379.608C213.501 379.109 212.833 378.42 212.335 377.54C211.851 376.66 211.609 375.641 211.609 374.482C211.609 373.309 211.851 372.282 212.335 371.402C212.833 370.522 213.501 369.833 214.337 369.334C215.173 368.835 216.104 368.586 217.131 368.586C217.981 368.586 218.715 368.747 219.331 369.07C219.961 369.393 220.467 369.84 220.849 370.412C221.245 370.984 221.487 371.637 221.575 372.37H220.871V364.164H223.775V380.004Z" fill="#222222"></path>
<defs>
<pattern id="pattern0_2_5548" patternContentUnits="objectBoundingBox" width="1" height="1">
<use xlink:href="#image0_2_5548" transform="matrix(0.00140824 0 0 0.00098912 -0.106247 0)"></use>
</pattern>
<image id="image0_2_5548" width="861" height="1011"></image>
</defs>
</svg>