<svg width="295" height="420" viewBox="0 0 295 420" fill="none" xmlns="http://www.w3.org/2000/svg" xmlns:xlink="http://www.w3.org/1999/xlink">
<path d="M0 30.0039C0 13.4354 13.4315 0.00390625 30 0.00390625H265C281.569 0.00390625 295 13.4354 295 30.0039V420.004H0V30.0039Z" fill="url(#pattern0_2_5549)"></path>
<path d="M20 364.004C20 352.958 28.9543 344.004 40 344.004H255C266.046 344.004 275 352.958 275 364.004V400.004H20V364.004Z" fill="#305CDE"></path>
<path d="M74.6333 380.004H71.6633V366.584H74.6333V380.004ZM79.5613 366.804H66.7353V364.274H79.5613V366.804ZM84.4569 380.356C83.2543 380.356 82.1909 380.107 81.2669 379.608C80.3429 379.095 79.6243 378.398 79.1109 377.518C78.5976 376.623 78.3409 375.611 78.3409 374.482C78.3409 373.323 78.5976 372.304 79.1109 371.424C79.6243 370.544 80.3429 369.855 81.2669 369.356C82.1909 368.843 83.2543 368.586 84.4569 368.586C85.6596 368.586 86.7229 368.843 87.6469 369.356C88.5709 369.855 89.2896 370.544 89.8029 371.424C90.3163 372.304 90.5729 373.316 90.5729 374.46C90.5729 375.604 90.3163 376.623 89.8029 377.518C89.2896 378.398 88.5709 379.095 87.6469 379.608C86.7229 380.107 85.6596 380.356 84.4569 380.356ZM84.4569 377.936C85.0729 377.936 85.6156 377.789 86.0849 377.496C86.5543 377.203 86.9209 376.799 87.1849 376.286C87.4489 375.758 87.5809 375.157 87.5809 374.482C87.5809 373.793 87.4489 373.191 87.1849 372.678C86.9209 372.15 86.5543 371.739 86.0849 371.446C85.6156 371.153 85.0729 371.006 84.4569 371.006C83.8409 371.006 83.2983 371.153 82.8289 371.446C82.3596 371.739 81.9929 372.15 81.7289 372.678C81.4649 373.191 81.3329 373.793 81.3329 374.482C81.3329 375.157 81.4649 375.758 81.7289 376.286C81.9929 376.799 82.3596 377.203 82.8289 377.496C83.2983 377.789 83.8409 377.936 84.4569 377.936ZM110.477 380.004H107.573V373.536C107.573 372.685 107.397 372.055 107.045 371.644C106.693 371.219 106.217 371.006 105.615 371.006C105.175 371.006 104.757 371.131 104.361 371.38C103.98 371.615 103.665 371.996 103.415 372.524C103.181 373.037 103.063 373.712 103.063 374.548V380.004H100.159V373.536C100.159 372.685 99.9833 372.055 99.6313 371.644C99.2793 371.219 98.7953 371.006 98.1793 371.006C97.7393 371.006 97.3213 371.131 96.9253 371.38C96.5439 371.615 96.2286 371.996 95.9793 372.524C95.7446 373.037 95.6273 373.712 95.6273 374.548V380.004H92.7233V368.938H95.6053V371.358L95.4513 371.336C95.6566 370.617 95.9499 370.067 96.3313 369.686C96.7273 369.29 97.1599 369.011 97.6293 368.85C98.1133 368.674 98.5899 368.586 99.0593 368.586C99.9833 368.586 100.753 368.835 101.369 369.334C102 369.833 102.418 370.573 102.623 371.556L102.337 371.578C102.557 370.815 102.88 370.221 103.305 369.796C103.745 369.356 104.237 369.048 104.779 368.872C105.322 368.681 105.857 368.586 106.385 368.586C107.676 368.586 108.681 368.989 109.399 369.796C110.118 370.603 110.477 371.776 110.477 373.316V380.004ZM130.673 380.004H127.769V373.536C127.769 372.685 127.593 372.055 127.241 371.644C126.889 371.219 126.412 371.006 125.811 371.006C125.371 371.006 124.953 371.131 124.557 371.38C124.175 371.615 123.86 371.996 123.611 372.524C123.376 373.037 123.259 373.712 123.259 374.548V380.004H120.355V373.536C120.355 372.685 120.179 372.055 119.827 371.644C119.475 371.219 118.991 371.006 118.375 371.006C117.935 371.006 117.517 371.131 117.121 371.38C116.739 371.615 116.424 371.996 116.175 372.524C115.94 373.037 115.823 373.712 115.823 374.548V380.004H112.919V368.938H115.801V371.358L115.647 371.336C115.852 370.617 116.145 370.067 116.527 369.686C116.923 369.29 117.355 369.011 117.825 368.85C118.309 368.674 118.785 368.586 119.255 368.586C120.179 368.586 120.949 368.835 121.565 369.334C122.195 369.833 122.613 370.573 122.819 371.556L122.533 371.578C122.753 370.815 123.075 370.221 123.501 369.796C123.941 369.356 124.432 369.048 124.975 368.872C125.517 368.681 126.053 368.586 126.581 368.586C127.871 368.586 128.876 368.989 129.595 369.796C130.313 370.603 130.673 371.776 130.673 373.316V380.004ZM140.981 368.938H143.907L138.649 381.28C138.224 382.263 137.689 383.003 137.043 383.502C136.398 384.015 135.54 384.272 134.469 384.272H133.039V381.896H134.315C134.755 381.896 135.122 381.793 135.415 381.588C135.723 381.397 135.965 381.089 136.141 380.664L136.383 380.026L131.653 368.938H134.667L138.275 378.376H137.329L140.981 368.938ZM149.256 377.43L151.258 375.428C151.64 375.912 152.102 376.33 152.644 376.682C153.187 377.034 153.774 377.305 154.404 377.496C155.035 377.687 155.68 377.782 156.34 377.782C157.059 377.782 157.675 377.694 158.188 377.518C158.716 377.342 159.12 377.093 159.398 376.77C159.692 376.433 159.838 376.044 159.838 375.604C159.838 375.017 159.552 374.548 158.98 374.196C158.423 373.829 157.418 373.536 155.966 373.316C154.544 373.111 153.385 372.81 152.49 372.414C151.61 372.018 150.958 371.519 150.532 370.918C150.122 370.317 149.916 369.605 149.916 368.784C149.916 367.831 150.18 366.987 150.708 366.254C151.251 365.521 151.992 364.949 152.93 364.538C153.869 364.127 154.94 363.922 156.142 363.922C157.55 363.922 158.804 364.186 159.904 364.714C161.004 365.242 161.936 365.953 162.698 366.848L160.718 368.828C160.161 368.109 159.494 367.537 158.716 367.112C157.954 366.687 157.103 366.474 156.164 366.474C155.211 366.474 154.434 366.672 153.832 367.068C153.231 367.449 152.93 367.963 152.93 368.608C152.93 368.945 153.048 369.239 153.282 369.488C153.517 369.737 153.906 369.95 154.448 370.126C155.006 370.287 155.754 370.441 156.692 370.588C158.115 370.808 159.274 371.131 160.168 371.556C161.078 371.967 161.752 372.495 162.192 373.14C162.632 373.785 162.852 374.555 162.852 375.45C162.852 376.447 162.574 377.313 162.016 378.046C161.459 378.779 160.689 379.351 159.706 379.762C158.724 380.158 157.587 380.356 156.296 380.356C154.786 380.356 153.436 380.092 152.248 379.564C151.06 379.021 150.063 378.31 149.256 377.43ZM175.463 380.004H172.823V377.782L172.691 377.43V373.272C172.691 372.495 172.442 371.893 171.943 371.468C171.444 371.043 170.762 370.83 169.897 370.83C169.266 370.83 168.672 370.955 168.115 371.204C167.572 371.439 167.096 371.776 166.685 372.216L165.167 370.456C165.754 369.869 166.465 369.415 167.301 369.092C168.137 368.755 169.046 368.586 170.029 368.586C171.1 368.586 172.046 368.769 172.867 369.136C173.688 369.503 174.326 370.031 174.781 370.72C175.236 371.395 175.463 372.223 175.463 373.206V380.004ZM169.061 380.356C168.21 380.356 167.462 380.202 166.817 379.894C166.172 379.586 165.666 379.161 165.299 378.618C164.947 378.075 164.771 377.445 164.771 376.726C164.771 375.963 164.991 375.318 165.431 374.79C165.871 374.247 166.494 373.829 167.301 373.536C168.122 373.243 169.068 373.096 170.139 373.096H172.977V374.988H170.359C169.567 374.988 168.929 375.127 168.445 375.406C167.961 375.685 167.719 376.088 167.719 376.616C167.719 377.1 167.902 377.481 168.269 377.76C168.65 378.039 169.142 378.178 169.743 378.178C170.315 378.178 170.836 378.061 171.305 377.826C171.774 377.577 172.156 377.239 172.449 376.814C172.742 376.389 172.911 375.905 172.955 375.362L173.791 375.758C173.791 376.667 173.593 377.467 173.197 378.156C172.801 378.845 172.244 379.388 171.525 379.784C170.821 380.165 170 380.356 169.061 380.356ZM190.655 380.004H187.773L184.979 371.556H185.771L183.021 380.004H180.139L176.685 368.938H179.545L182.053 378.2H181.327L184.231 368.938H186.651L189.555 378.2H188.807L191.315 368.938H194.109L190.655 380.004ZM204.188 368.938H207.114L201.856 381.28C201.431 382.263 200.896 383.003 200.25 383.502C199.605 384.015 198.747 384.272 197.676 384.272H196.246V381.896H197.522C197.962 381.896 198.329 381.793 198.622 381.588C198.93 381.397 199.172 381.089 199.348 380.664L199.59 380.026L194.86 368.938H197.874L201.482 378.376H200.536L204.188 368.938ZM217.599 376.55L219.139 378.332C218.582 378.963 217.863 379.461 216.983 379.828C216.118 380.18 215.157 380.356 214.101 380.356C212.825 380.356 211.703 380.107 210.735 379.608C209.767 379.109 209.012 378.42 208.469 377.54C207.927 376.66 207.655 375.641 207.655 374.482C207.655 373.323 207.912 372.304 208.425 371.424C208.953 370.529 209.665 369.833 210.559 369.334C211.469 368.835 212.488 368.586 213.617 368.586C214.717 368.586 215.693 368.835 216.543 369.334C217.409 369.818 218.083 370.493 218.567 371.358C219.051 372.223 219.293 373.228 219.293 374.372V374.504H216.455V374.196C216.455 373.521 216.331 372.935 216.081 372.436C215.847 371.937 215.517 371.549 215.091 371.27C214.681 370.991 214.189 370.852 213.617 370.852C213.016 370.852 212.488 370.999 212.033 371.292C211.579 371.571 211.219 371.981 210.955 372.524C210.706 373.052 210.581 373.683 210.581 374.416C210.581 375.193 210.735 375.861 211.043 376.418C211.366 376.961 211.799 377.379 212.341 377.672C212.899 377.951 213.537 378.09 214.255 378.09C215.575 378.09 216.69 377.577 217.599 376.55ZM219.293 375.362H209.525V373.514H218.941L219.293 374.372V375.362ZM228.365 368.74V371.38H227.771C227.082 371.38 226.488 371.519 225.989 371.798C225.49 372.062 225.094 372.48 224.801 373.052C224.522 373.624 224.383 374.365 224.383 375.274V380.004H221.479V368.938H224.361V372.524H224.009C224.141 371.541 224.412 370.779 224.823 370.236C225.248 369.693 225.74 369.312 226.297 369.092C226.869 368.857 227.426 368.74 227.969 368.74H228.365Z" fill="#FAFAFA"></path>
<defs>
<pattern id="pattern0_2_5549" patternContentUnits="objectBoundingBox" width="1" height="1">
<use xlink:href="#image0_2_5549" transform="matrix(0.00126554 0 0 0.000888889 -0.068226 0)"></use>
</pattern>
<image id="image0_2_5549" width="898" height="1125"></image>
</defs>
</svg>